<mxfile host="app.diagrams.net" modified="2023-08-29T06:34:19.296Z" agent="Mozilla/5.0 (Windows NT 10.0; Win64; x64) AppleWebKit/537.36 (KHTML, like Gecko) Chrome/116.0.0.0 Safari/537.36" etag="36bvGGdOI3c5niDW2p9N" version="21.6.9" type="device">
  <diagram name="Page-1" id="3NPrS3qFUBEGUd7JARzi">
    <mxGraphModel dx="1034" dy="507" grid="1" gridSize="10" guides="1" tooltips="1" connect="1" arrows="1" fold="1" page="1" pageScale="1" pageWidth="850" pageHeight="1100" math="0" shadow="0">
      <root>
        <mxCell id="0" />
        <mxCell id="1" parent="0" />
        <mxCell id="4GCWKCkHJ2K4M_hMrYMs-1" value="" style="ellipse;whiteSpace=wrap;html=1;aspect=fixed;" vertex="1" parent="1">
          <mxGeometry x="50" y="150" width="30" height="30" as="geometry" />
        </mxCell>
        <mxCell id="4GCWKCkHJ2K4M_hMrYMs-2" value="Negotiation" style="rounded=1;whiteSpace=wrap;html=1;" vertex="1" parent="1">
          <mxGeometry x="140" y="135" width="120" height="60" as="geometry" />
        </mxCell>
        <mxCell id="4GCWKCkHJ2K4M_hMrYMs-19" style="edgeStyle=orthogonalEdgeStyle;rounded=0;orthogonalLoop=1;jettySize=auto;html=1;exitX=0;exitY=0.25;exitDx=0;exitDy=0;entryX=1;entryY=0.25;entryDx=0;entryDy=0;" edge="1" parent="1" source="4GCWKCkHJ2K4M_hMrYMs-3" target="4GCWKCkHJ2K4M_hMrYMs-2">
          <mxGeometry relative="1" as="geometry" />
        </mxCell>
        <mxCell id="4GCWKCkHJ2K4M_hMrYMs-20" value="condition added or removed" style="edgeLabel;html=1;align=center;verticalAlign=middle;resizable=0;points=[];" vertex="1" connectable="0" parent="4GCWKCkHJ2K4M_hMrYMs-19">
          <mxGeometry x="0.0775" y="-1" relative="1" as="geometry">
            <mxPoint as="offset" />
          </mxGeometry>
        </mxCell>
        <mxCell id="4GCWKCkHJ2K4M_hMrYMs-22" style="edgeStyle=orthogonalEdgeStyle;rounded=0;orthogonalLoop=1;jettySize=auto;html=1;entryX=0.5;entryY=0;entryDx=0;entryDy=0;" edge="1" parent="1" source="4GCWKCkHJ2K4M_hMrYMs-3" target="4GCWKCkHJ2K4M_hMrYMs-5">
          <mxGeometry relative="1" as="geometry" />
        </mxCell>
        <mxCell id="4GCWKCkHJ2K4M_hMrYMs-23" value="check to see if all parties accept" style="edgeLabel;html=1;align=center;verticalAlign=middle;resizable=0;points=[];" vertex="1" connectable="0" parent="4GCWKCkHJ2K4M_hMrYMs-22">
          <mxGeometry x="-0.0462" y="1" relative="1" as="geometry">
            <mxPoint as="offset" />
          </mxGeometry>
        </mxCell>
        <mxCell id="4GCWKCkHJ2K4M_hMrYMs-3" value="Tentativley_Accepted" style="rounded=1;whiteSpace=wrap;html=1;" vertex="1" parent="1">
          <mxGeometry x="590" y="135" width="120" height="60" as="geometry" />
        </mxCell>
        <mxCell id="4GCWKCkHJ2K4M_hMrYMs-31" style="edgeStyle=orthogonalEdgeStyle;rounded=0;orthogonalLoop=1;jettySize=auto;html=1;entryX=1;entryY=0.5;entryDx=0;entryDy=0;" edge="1" parent="1" source="4GCWKCkHJ2K4M_hMrYMs-4" target="4GCWKCkHJ2K4M_hMrYMs-8">
          <mxGeometry relative="1" as="geometry" />
        </mxCell>
        <mxCell id="4GCWKCkHJ2K4M_hMrYMs-32" value="All parties vote to complete contract" style="edgeLabel;html=1;align=center;verticalAlign=middle;resizable=0;points=[];" vertex="1" connectable="0" parent="4GCWKCkHJ2K4M_hMrYMs-31">
          <mxGeometry x="-0.004" relative="1" as="geometry">
            <mxPoint as="offset" />
          </mxGeometry>
        </mxCell>
        <mxCell id="4GCWKCkHJ2K4M_hMrYMs-4" value="Accepted" style="rounded=1;whiteSpace=wrap;html=1;" vertex="1" parent="1">
          <mxGeometry x="590" y="340" width="120" height="60" as="geometry" />
        </mxCell>
        <mxCell id="4GCWKCkHJ2K4M_hMrYMs-24" style="edgeStyle=orthogonalEdgeStyle;rounded=0;orthogonalLoop=1;jettySize=auto;html=1;entryX=1;entryY=0.5;entryDx=0;entryDy=0;" edge="1" parent="1" source="4GCWKCkHJ2K4M_hMrYMs-5" target="4GCWKCkHJ2K4M_hMrYMs-3">
          <mxGeometry relative="1" as="geometry">
            <Array as="points">
              <mxPoint x="780" y="270" />
              <mxPoint x="780" y="165" />
            </Array>
          </mxGeometry>
        </mxCell>
        <mxCell id="4GCWKCkHJ2K4M_hMrYMs-25" value="Not all parties accepted yet" style="edgeLabel;html=1;align=center;verticalAlign=middle;resizable=0;points=[];" vertex="1" connectable="0" parent="4GCWKCkHJ2K4M_hMrYMs-24">
          <mxGeometry x="0.3132" y="-2" relative="1" as="geometry">
            <mxPoint as="offset" />
          </mxGeometry>
        </mxCell>
        <mxCell id="4GCWKCkHJ2K4M_hMrYMs-26" style="edgeStyle=orthogonalEdgeStyle;rounded=0;orthogonalLoop=1;jettySize=auto;html=1;entryX=0.5;entryY=0;entryDx=0;entryDy=0;" edge="1" parent="1" source="4GCWKCkHJ2K4M_hMrYMs-5" target="4GCWKCkHJ2K4M_hMrYMs-4">
          <mxGeometry relative="1" as="geometry" />
        </mxCell>
        <mxCell id="4GCWKCkHJ2K4M_hMrYMs-27" value="All parties accepted" style="edgeLabel;html=1;align=center;verticalAlign=middle;resizable=0;points=[];" vertex="1" connectable="0" parent="4GCWKCkHJ2K4M_hMrYMs-26">
          <mxGeometry y="-1" relative="1" as="geometry">
            <mxPoint as="offset" />
          </mxGeometry>
        </mxCell>
        <mxCell id="4GCWKCkHJ2K4M_hMrYMs-5" value="" style="rhombus;whiteSpace=wrap;html=1;" vertex="1" parent="1">
          <mxGeometry x="630" y="260" width="40" height="20" as="geometry" />
        </mxCell>
        <mxCell id="4GCWKCkHJ2K4M_hMrYMs-6" value="" style="ellipse;whiteSpace=wrap;html=1;aspect=fixed;" vertex="1" parent="1">
          <mxGeometry x="420" y="255" width="30" height="30" as="geometry" />
        </mxCell>
        <mxCell id="4GCWKCkHJ2K4M_hMrYMs-7" value="" style="ellipse;whiteSpace=wrap;html=1;aspect=fixed;" vertex="1" parent="1">
          <mxGeometry x="425" y="260" width="20" height="20" as="geometry" />
        </mxCell>
        <mxCell id="4GCWKCkHJ2K4M_hMrYMs-8" value="Completed" style="rounded=1;whiteSpace=wrap;html=1;" vertex="1" parent="1">
          <mxGeometry x="140" y="340" width="120" height="60" as="geometry" />
        </mxCell>
        <mxCell id="4GCWKCkHJ2K4M_hMrYMs-9" value="" style="endArrow=classic;html=1;rounded=0;exitX=1;exitY=0.5;exitDx=0;exitDy=0;entryX=0;entryY=0.5;entryDx=0;entryDy=0;" edge="1" parent="1" source="4GCWKCkHJ2K4M_hMrYMs-1" target="4GCWKCkHJ2K4M_hMrYMs-2">
          <mxGeometry width="50" height="50" relative="1" as="geometry">
            <mxPoint x="410" y="400" as="sourcePoint" />
            <mxPoint x="460" y="350" as="targetPoint" />
          </mxGeometry>
        </mxCell>
        <mxCell id="4GCWKCkHJ2K4M_hMrYMs-10" value="" style="endArrow=classic;html=1;rounded=0;exitX=0.25;exitY=0;exitDx=0;exitDy=0;entryX=0.75;entryY=0;entryDx=0;entryDy=0;" edge="1" parent="1" source="4GCWKCkHJ2K4M_hMrYMs-2" target="4GCWKCkHJ2K4M_hMrYMs-2">
          <mxGeometry width="50" height="50" relative="1" as="geometry">
            <mxPoint x="410" y="200" as="sourcePoint" />
            <mxPoint x="270" y="100" as="targetPoint" />
            <Array as="points">
              <mxPoint x="200" y="70" />
            </Array>
          </mxGeometry>
        </mxCell>
        <mxCell id="4GCWKCkHJ2K4M_hMrYMs-11" value="Condition added or removed" style="text;strokeColor=none;fillColor=none;align=left;verticalAlign=middle;spacingLeft=4;spacingRight=4;overflow=hidden;points=[[0,0.5],[1,0.5]];portConstraint=eastwest;rotatable=0;whiteSpace=wrap;html=1;" vertex="1" parent="1">
          <mxGeometry x="150" y="40" width="110" height="30" as="geometry" />
        </mxCell>
        <mxCell id="4GCWKCkHJ2K4M_hMrYMs-12" value="" style="endArrow=classic;html=1;rounded=0;exitX=1;exitY=0.75;exitDx=0;exitDy=0;entryX=0;entryY=0.75;entryDx=0;entryDy=0;" edge="1" parent="1" source="4GCWKCkHJ2K4M_hMrYMs-2" target="4GCWKCkHJ2K4M_hMrYMs-3">
          <mxGeometry width="50" height="50" relative="1" as="geometry">
            <mxPoint x="410" y="200" as="sourcePoint" />
            <mxPoint x="460" y="150" as="targetPoint" />
          </mxGeometry>
        </mxCell>
        <mxCell id="4GCWKCkHJ2K4M_hMrYMs-18" value="1 accepted vote" style="edgeLabel;html=1;align=center;verticalAlign=middle;resizable=0;points=[];" vertex="1" connectable="0" parent="4GCWKCkHJ2K4M_hMrYMs-12">
          <mxGeometry x="-0.0991" y="1" relative="1" as="geometry">
            <mxPoint as="offset" />
          </mxGeometry>
        </mxCell>
        <mxCell id="4GCWKCkHJ2K4M_hMrYMs-14" value="" style="endArrow=classic;html=1;rounded=0;exitX=1;exitY=1;exitDx=0;exitDy=0;entryX=0;entryY=0;entryDx=0;entryDy=0;" edge="1" parent="1" source="4GCWKCkHJ2K4M_hMrYMs-2" target="4GCWKCkHJ2K4M_hMrYMs-6">
          <mxGeometry width="50" height="50" relative="1" as="geometry">
            <mxPoint x="410" y="200" as="sourcePoint" />
            <mxPoint x="460" y="150" as="targetPoint" />
          </mxGeometry>
        </mxCell>
        <mxCell id="4GCWKCkHJ2K4M_hMrYMs-16" value="1 rejected vote" style="edgeLabel;html=1;align=center;verticalAlign=middle;resizable=0;points=[];" vertex="1" connectable="0" parent="4GCWKCkHJ2K4M_hMrYMs-14">
          <mxGeometry x="0.0505" y="1" relative="1" as="geometry">
            <mxPoint as="offset" />
          </mxGeometry>
        </mxCell>
        <mxCell id="4GCWKCkHJ2K4M_hMrYMs-29" value="" style="endArrow=classic;html=1;rounded=0;entryX=1;entryY=0;entryDx=0;entryDy=0;exitX=0;exitY=1;exitDx=0;exitDy=0;" edge="1" parent="1" source="4GCWKCkHJ2K4M_hMrYMs-3" target="4GCWKCkHJ2K4M_hMrYMs-6">
          <mxGeometry width="50" height="50" relative="1" as="geometry">
            <mxPoint x="410" y="250" as="sourcePoint" />
            <mxPoint x="460" y="200" as="targetPoint" />
          </mxGeometry>
        </mxCell>
        <mxCell id="4GCWKCkHJ2K4M_hMrYMs-30" value="1 rejected vote" style="edgeLabel;html=1;align=center;verticalAlign=middle;resizable=0;points=[];" vertex="1" connectable="0" parent="4GCWKCkHJ2K4M_hMrYMs-29">
          <mxGeometry x="0.454" y="-1" relative="1" as="geometry">
            <mxPoint as="offset" />
          </mxGeometry>
        </mxCell>
        <mxCell id="4GCWKCkHJ2K4M_hMrYMs-33" value="Rejected" style="text;strokeColor=none;fillColor=none;align=left;verticalAlign=middle;spacingLeft=4;spacingRight=4;overflow=hidden;points=[[0,0.5],[1,0.5]];portConstraint=eastwest;rotatable=0;whiteSpace=wrap;html=1;" vertex="1" parent="1">
          <mxGeometry x="404" y="280" width="80" height="30" as="geometry" />
        </mxCell>
      </root>
    </mxGraphModel>
  </diagram>
</mxfile>
